STARTFONT 2.1
FONT -JDECW-Mincho-Medium-R-Normal--20-140-100-100-M-200-JISX0208.1983-1.3
SIZE 14 100 100
FONTBOUNDINGBOX 22 22 0 -4

STARTPROPERTIES 26
FONTNAME_REGISTRY ""
FAMILY_NAME "Mincho"
FOUNDRY "JDECW"
WEIGHT_NAME "Medium"
SLANT "R"
SETWIDTH_NAME "Normal"
ADD_STYLE_NAME ""
PIXEL_SIZE 20
POINT_SIZE 140
RESOLUTION_X 100
RESOLUTION_Y 100
SPACING "M"
AVERAGE_WIDTH 200
CHARSET_REGISTRY "JISX0208.1983"
CHARSET_ENCODING "1"
DEVICE_FONT_NAME "Mincho-JISX0208.1983-1"
CHARSET_COLLECTIONS "JISX0208.1983 1"
FULL_NAME "Mincho-JISX0208.1983-1"
COPYRIGHT "Copyright (c) 1990 1991 TYPEBANK, Digital Equipment Corporation Japan"
CAP_HEIGHT 15
X_HEIGHT 10
WEIGHT 10
QUAD_WIDTH 22
DEFAULT_CHAR 41634
FONT_DESCENT 4
FONT_ASCENT 18
ENDPROPERTIES

CHARS 59

STARTCHAR Ca1a2
ENCODING 41378
SWIDTH 1000 0
DWIDTH 22 0
BBX 22 22 0 -4
BITMAP
000000
000040
000020
000030
000018
000008
000000
000000
000000
000000
000000
000000
000000
000000
000000
000000
000000
000000
000000
000000
000000
000000
ENDCHAR

STARTCHAR Ca1a3
ENCODING 41379
SWIDTH 1000 0
DWIDTH 22 0
BBX 22 22 0 -4
BITMAP
000000
000070
000088
000088
000088
000070
000000
000000
000000
000000
000000
000000
000000
000000
000000
000000
000000
000000
000000
000000
000000
000000
ENDCHAR

STARTCHAR Ca1a4
ENCODING 41380
SWIDTH 1000 0
DWIDTH 22 0
BBX 22 22 0 -4
BITMAP
000000
000030
000078
000078
000030
000030
000060
000000
000000
000000
000000
000000
000000
000000
000000
000000
000000
000000
000000
000000
000000
000000
ENDCHAR

STARTCHAR Ca1a5
ENCODING 41381
SWIDTH 1000 0
DWIDTH 22 0
BBX 22 22 0 -4
BITMAP
000000
000060
0000F0
0000F0
000060
000000
000000
000000
000000
000000
000000
000000
000000
000000
000000
000000
000000
000000
000000
000000
000000
000000
ENDCHAR

STARTCHAR Ca1b1
ENCODING 41393
SWIDTH 1000 0
DWIDTH 22 0
BBX 22 22 0 -4
BITMAP
000000
000008
000008
000008
000008
000008
000008
000008
000008
000008
000008
000008
000008
000008
000008
000008
000008
000008
000008
000008
000008
000000
ENDCHAR

STARTCHAR Ca1b2
ENCODING 41394
SWIDTH 1000 0
DWIDTH 22 0
BBX 22 22 0 -4
BITMAP
000000
400000
400000
400000
400000
400000
400000
400000
400000
400000
400000
400000
400000
400000
400000
400000
400000
400000
400000
400000
400000
000000
ENDCHAR

STARTCHAR Ca1bc
ENCODING 41404
SWIDTH 1000 0
DWIDTH 22 0
BBX 22 22 0 -4
BITMAP
000000
000000
004000
002000
002000
002000
002000
002000
002000
002000
002000
002000
002000
002000
002000
002000
002000
002000
006000
002000
000000
000000
ENDCHAR

STARTCHAR Ca1bd
ENCODING 41405
SWIDTH 1000 0
DWIDTH 22 0
BBX 22 22 0 -4
BITMAP
000000
001000
001000
001000
001000
001000
001000
001000
001000
001000
001000
001000
001000
001000
001000
001000
001000
001000
001000
001000
001000
000000
ENDCHAR

STARTCHAR Ca1be
ENCODING 41406
SWIDTH 1000 0
DWIDTH 22 0
BBX 22 22 0 -4
BITMAP
000000
000000
000000
000000
000000
000000
000000
001000
001000
001000
001000
001000
001000
001000
001000
000000
000000
000000
000000
000000
000000
000000
ENDCHAR

STARTCHAR Ca1c1
ENCODING 41409
SWIDTH 1000 0
DWIDTH 22 0
BBX 22 22 0 -4
BITMAP
000000
000000
001000
002000
004000
004000
008000
008000
008000
004000
004000
002000
002000
001000
001000
001000
002000
002000
004000
008000
000000
000000
ENDCHAR

STARTCHAR Ca1c2
ENCODING 41410
SWIDTH 1000 0
DWIDTH 22 0
BBX 22 22 0 -4
BITMAP
000000
000000
000000
000000
000000
000000
000000
000000
000000
7FFFF8
000000
000000
7FFFF8
000000
000000
000000
000000
000000
000000
000000
000000
000000
ENDCHAR

STARTCHAR Ca1c3
ENCODING 41411
SWIDTH 1000 0
DWIDTH 22 0
BBX 22 22 0 -4
BITMAP
000000
000000
000000
000000
000000
000000
000000
000000
000000
000000
7FFFF8
000000
000000
000000
000000
000000
000000
000000
000000
000000
000000
000000
ENDCHAR

STARTCHAR Ca1c4
ENCODING 41412
SWIDTH 1000 0
DWIDTH 22 0
BBX 22 22 0 -4
BITMAP
000000
000000
000000
003000
003000
000000
000000
000000
000000
000000
003000
003000
000000
000000
000000
000000
000000
003000
003000
000000
000000
000000
ENDCHAR

STARTCHAR Ca1c5
ENCODING 41413
SWIDTH 1000 0
DWIDTH 22 0
BBX 22 22 0 -4
BITMAP
000000
000000
000000
000000
000000
003000
003000
000000
000000
000000
000000
000000
000000
000000
000000
003000
003000
000000
000000
000000
000000
000000
ENDCHAR

STARTCHAR Ca1c6
ENCODING 41414
SWIDTH 1000 0
DWIDTH 22 0
BBX 22 22 0 -4
BITMAP
000000
000000
000000
000000
000000
000000
000000
000000
000000
000000
000000
000000
000000
000000
000000
000000
000000
000080
0001E0
0001D0
000088
000000
ENDCHAR

STARTCHAR Ca1c7
ENCODING 41415
SWIDTH 1000 0
DWIDTH 22 0
BBX 22 22 0 -4
BITMAP
000000
000110
0000B8
000078
000010
000000
000000
000000
000000
000000
000000
000000
000000
000000
000000
000000
000000
000000
000000
000000
000000
000000
ENDCHAR

STARTCHAR Ca1c8
ENCODING 41416
SWIDTH 1000 0
DWIDTH 22 0
BBX 22 22 0 -4
BITMAP
000000
000000
000000
000000
000000
000000
000000
000000
000000
000000
000000
000000
000080
0001E0
0001D0
000088
000000
000080
0001E0
0001D0
000088
000000
ENDCHAR

STARTCHAR Ca1c9
ENCODING 41417
SWIDTH 1000 0
DWIDTH 22 0
BBX 22 22 0 -4
BITMAP
000000
000110
0000B8
000078
000010
000000
000110
0000B8
000078
000010
000000
000000
000000
000000
000000
000000
000000
000000
000000
000000
000000
000000
ENDCHAR

STARTCHAR Ca1ca
ENCODING 41418
SWIDTH 1000 0
DWIDTH 22 0
BBX 22 22 0 -4
BITMAP
000000
000000
000000
000000
000000
000000
000000
000000
000000
000000
000000
000000
000000
000000
000000
00FC00
070380
180060
200010
400008
000000
000000
ENDCHAR

STARTCHAR Ca1cb
ENCODING 41419
SWIDTH 1000 0
DWIDTH 22 0
BBX 22 22 0 -4
BITMAP
000000
000000
400008
200010
180060
070380
00FC00
000000
000000
000000
000000
000000
000000
000000
000000
000000
000000
000000
000000
000000
000000
000000
ENDCHAR

STARTCHAR Ca1cc
ENCODING 41420
SWIDTH 1000 0
DWIDTH 22 0
BBX 22 22 0 -4
BITMAP
000000
000000
000000
000000
000000
000000
000000
000000
000000
000000
000000
000000
000000
000000
000000
07FF80
080040
100020
200010
400008
000000
000000
ENDCHAR

STARTCHAR Ca1cd
ENCODING 41421
SWIDTH 1000 0
DWIDTH 22 0
BBX 22 22 0 -4
BITMAP
000000
000000
400008
200010
100020
080040
07FF80
000000
000000
000000
000000
000000
000000
000000
000000
000000
000000
000000
000000
000000
000000
000000
ENDCHAR

STARTCHAR Ca1ce
ENCODING 41422
SWIDTH 1000 0
DWIDTH 22 0
BBX 22 22 0 -4
BITMAP
000000
000000
000000
000000
000000
000000
000000
000000
000000
000000
000000
000000
000000
000000
000000
000000
7FFFF8
400008
400008
400008
000000
000000
ENDCHAR

STARTCHAR Ca1cf
ENCODING 41423
SWIDTH 1000 0
DWIDTH 22 0
BBX 22 22 0 -4
BITMAP
000000
000000
400008
400008
400008
7FFFF8
000000
000000
000000
000000
000000
000000
000000
000000
000000
000000
000000
000000
000000
000000
000000
000000
ENDCHAR

STARTCHAR Ca1d0
ENCODING 41424
SWIDTH 1000 0
DWIDTH 22 0
BBX 22 22 0 -4
BITMAP
000000
000000
000000
000000
000000
000000
000000
000000
000000
000000
000000
000000
000000
001000
002800
1FC7E0
200010
400008
400008
400008
000000
000000
ENDCHAR

STARTCHAR Ca1d1
ENCODING 41425
SWIDTH 1000 0
DWIDTH 22 0
BBX 22 22 0 -4
BITMAP
000000
000000
400008
400008
400008
200010
1FC7E0
002800
001000
000000
000000
000000
000000
000000
000000
000000
000000
000000
000000
000000
000000
000000
ENDCHAR

STARTCHAR Ca1d2
ENCODING 41426
SWIDTH 1000 0
DWIDTH 22 0
BBX 22 22 0 -4
BITMAP
000000
000000
000000
000000
000000
000000
000000
000000
000000
000000
000000
003000
004800
008400
010200
020100
040080
080040
100020
200010
400008
000000
ENDCHAR

STARTCHAR Ca1d3
ENCODING 41427
SWIDTH 1000 0
DWIDTH 22 0
BBX 22 22 0 -4
BITMAP
000000
400008
200010
100020
080040
040080
020100
010200
008400
004800
003000
000000
000000
000000
000000
000000
000000
000000
000000
000000
000000
000000
ENDCHAR

STARTCHAR Ca1d4
ENCODING 41428
SWIDTH 1000 0
DWIDTH 22 0
BBX 22 22 0 -4
BITMAP
000000
000000
000000
000000
000000
000000
000000
000000
003000
004800
008400
013200
024900
048480
090240
120120
240090
480048
100020
200010
400008
000000
ENDCHAR

STARTCHAR Ca1d5
ENCODING 41429
SWIDTH 1000 0
DWIDTH 22 0
BBX 22 22 0 -4
BITMAP
000000
400008
200010
100020
480048
240090
120120
090240
048480
024900
013200
008400
004800
003000
000000
000000
000000
000000
000000
000000
000000
000000
ENDCHAR

STARTCHAR Ca1d6
ENCODING 41430
SWIDTH 1000 0
DWIDTH 22 0
BBX 22 22 0 -4
BITMAP
000000
000000
000000
000000
000000
000000
000000
000000
000000
000000
000000
000000
000000
000000
000000
03FFF8
000008
000008
000008
000008
000000
000000
ENDCHAR

STARTCHAR Ca1d7
ENCODING 41431
SWIDTH 1000 0
DWIDTH 22 0
BBX 22 22 0 -4
BITMAP
000000
000000
400000
400000
400000
400000
7FFF00
000000
000000
000000
000000
000000
000000
000000
000000
000000
000000
000000
000000
000000
000000
000000
ENDCHAR

STARTCHAR Ca1d8
ENCODING 41432
SWIDTH 1000 0
DWIDTH 22 0
BBX 22 22 0 -4
BITMAP
000000
000000
000000
000000
000000
000000
000000
000000
000000
000000
000000
000000
03FFF8
020008
020008
03FFC8
000048
000048
000048
000078
000000
000000
ENDCHAR

STARTCHAR Ca1d9
ENCODING 41433
SWIDTH 1000 0
DWIDTH 22 0
BBX 22 22 0 -4
BITMAP
000000
000000
780000
480000
480000
480000
4FFF00
400100
400100
7FFF00
000000
000000
000000
000000
000000
000000
000000
000000
000000
000000
000000
000000
ENDCHAR

STARTCHAR Ca1da
ENCODING 41434
SWIDTH 1000 0
DWIDTH 22 0
BBX 22 22 0 -4
BITMAP
000000
000000
000000
000000
000000
000000
000000
000000
000000
000000
000000
000000
000000
000000
000000
7FFFF8
7FFFF8
7E01F8
700038
400008
000000
000000
ENDCHAR

STARTCHAR Ca1db
ENCODING 41435
SWIDTH 1000 0
DWIDTH 22 0
BBX 22 22 0 -4
BITMAP
000000
000000
400008
700038
7E01F8
7FFFF8
7FFFF8
000000
000000
000000
000000
000000
000000
000000
000000
000000
000000
000000
000000
000000
000000
000000
ENDCHAR

STARTCHAR Ca2a2
ENCODING 41634
SWIDTH 1000 0
DWIDTH 22 0
BBX 22 22 0 -4
BITMAP
000000
000000
000000
1FFFC0
100040
100040
100040
100040
100040
100040
100040
100040
100040
100040
100040
100040
100040
1FFFC0
000000
000000
000000
000000
ENDCHAR

STARTCHAR Ca4a1
ENCODING 42145
SWIDTH 1000 0
DWIDTH 22 0
BBX 22 22 0 -4
BITMAP
000000
000000
000000
003000
001000
011300
00FC00
001000
001200
001F80
006260
00A420
012410
022810
022810
023020
01D060
000380
000000
000000
000000
000000
ENDCHAR

STARTCHAR Ca4a3
ENCODING 42147
SWIDTH 1000 0
DWIDTH 22 0
BBX 22 22 0 -4
BITMAP
000000
000000
000000
000000
000000
080000
080000
080100
080080
080040
080060
084020
088020
048000
050000
030000
010000
000000
000000
000000
000000
000000
ENDCHAR

STARTCHAR Ca4a5
ENCODING 42149
SWIDTH 1000 0
DWIDTH 22 0
BBX 22 22 0 -4
BITMAP
000000
000000
000000
001000
000C00
000380
000400
000000
0003C0
004C20
003010
000010
000010
000010
000020
000020
000040
000180
000E00
000000
000000
000000
ENDCHAR

STARTCHAR Ca4a7
ENCODING 42151
SWIDTH 1000 0
DWIDTH 22 0
BBX 22 22 0 -4
BITMAP
000000
000000
000000
002000
001800
000700
000800
000000
000100
008F80
007200
000400
000800
001600
002100
004100
008100
010100
0200F0
000000
000000
000000
ENDCHAR

STARTCHAR Ca4a9
ENCODING 42153
SWIDTH 1000 0
DWIDTH 22 0
BBX 22 22 0 -4
BITMAP
000000
000000
000000
000000
006080
002060
002430
023810
01E000
002000
002FC0
003020
006010
00A010
012010
022010
012420
00C3C0
000000
000000
000000
000000
ENDCHAR

STARTCHAR Ca4c3
ENCODING 42179
SWIDTH 1000 0
DWIDTH 22 0
BBX 22 22 0 -4
BITMAP
000000
000000
000000
000000
000000
000000
001F00
08E0C0
070040
000020
000020
000020
000040
0000C0
000300
003C00
000000
000000
000000
000000
000000
000000
ENDCHAR

STARTCHAR Ca4e3
ENCODING 42211
SWIDTH 1000 0
DWIDTH 22 0
BBX 22 22 0 -4
BITMAP
000000
000000
001000
000C00
018600
008000
0043E0
004C10
003008
04E008
032008
001210
0011E0
001000
000800
000800
000800
000400
000400
000000
000000
000000
ENDCHAR

STARTCHAR Ca4e5
ENCODING 42213
SWIDTH 1000 0
DWIDTH 22 0
BBX 22 22 0 -4
BITMAP
000000
000000
000000
000300
000100
010100
0083E0
008D10
009108
012108
012108
014108
014108
018910
008530
0083C0
000200
000400
000800
000000
000000
000000
ENDCHAR

STARTCHAR Ca4e7
ENCODING 42215
SWIDTH 1000 0
DWIDTH 22 0
BBX 22 22 0 -4
BITMAP
000000
000000
000000
000600
000200
000200
000200
000230
0003C0
000200
000200
000200
000200
000200
003F00
0042C0
008220
00C210
003C00
000000
000000
000000
ENDCHAR

STARTCHAR Ca4ee
ENCODING 42222
SWIDTH 1000 0
DWIDTH 22 0
BBX 22 22 0 -4
BITMAP
000000
000000
000000
00C000
004000
004000
006000
04C780
035860
006020
00C010
014010
014010
024010
044020
0540C0
00C700
004000
000000
000000
000000
000000
ENDCHAR

STARTCHAR Ca5a1
ENCODING 42401
SWIDTH 1000 0
DWIDTH 22 0
BBX 22 22 0 -4
BITMAP
000000
000000
000000
000010
0103F8
00FC20
000040
000080
000500
000200
000200
000200
000400
000400
000800
000800
001000
002000
004000
000000
000000
000000
ENDCHAR

STARTCHAR Ca5a3
ENCODING 42403
SWIDTH 1000 0
DWIDTH 22 0
BBX 22 22 0 -4
BITMAP
000000
000000
000000
000060
000010
000020
000040
000080
000300
000500
000900
003100
00C100
000100
000100
000100
000100
000100
000000
000000
000000
000000
ENDCHAR

STARTCHAR Ca5a5
ENCODING 42405
SWIDTH 1000 0
DWIDTH 22 0
BBX 22 22 0 -4
BITMAP
000000
000000
000000
000C00
000400
000400
008420
007FF0
004020
004020
004020
004020
000040
000040
000080
000100
000200
000C00
000000
000000
000000
000000
ENDCHAR

STARTCHAR Ca5a7
ENCODING 42407
SWIDTH 1000 0
DWIDTH 22 0
BBX 22 22 0 -4
BITMAP
000000
000000
000000
000000
000000
000400
103E00
0FC000
004000
004000
004000
004000
004000
004080
207FC0
1F8000
000000
000000
000000
000000
000000
000000
ENDCHAR

STARTCHAR Ca5a9
ENCODING 42409
SWIDTH 1000 0
DWIDTH 22 0
BBX 22 22 0 -4
BITMAP
000000
000000
000000
000600
000200
000200
000220
0407F0
03FA00
001200
001200
002200
004200
004200
009200
010A00
020600
000400
000000
000000
000000
000000
ENDCHAR

STARTCHAR Ca5c3
ENCODING 42435
SWIDTH 1000 0
DWIDTH 22 0
BBX 22 22 0 -4
BITMAP
000000
000000
000000
000000
000030
001010
010810
008410
004420
004020
000020
000040
000040
000080
000100
000200
000C00
003000
000000
000000
000000
000000
ENDCHAR

STARTCHAR Ca5e3
ENCODING 42467
SWIDTH 1000 0
DWIDTH 22 0
BBX 22 22 0 -4
BITMAP
000000
000000
000000
006000
002000
002000
001020
0017F0
023820
01C840
000880
000900
000800
000400
000400
000400
000400
000400
000000
000000
000000
000000
ENDCHAR

STARTCHAR Ca5e5
ENCODING 42469
SWIDTH 1000 0
DWIDTH 22 0
BBX 22 22 0 -4
BITMAP
000000
000000
000000
000000
000000
000000
080800
07FC00
000800
000800
000800
000800
001000
001000
401100
3FFF80
000000
000000
000000
000000
000000
000000
ENDCHAR

STARTCHAR Ca5e7
ENCODING 42471
SWIDTH 1000 0
DWIDTH 22 0
BBX 22 22 0 -4
BITMAP
000000
000000
000000
000000
000000
020080
01FFC0
000080
000080
010080
00FF00
000100
000100
000100
020100
01FF80
000000
000000
000000
000000
000000
000000
ENDCHAR

STARTCHAR Ca5ee
ENCODING 42478
SWIDTH 1000 0
DWIDTH 22 0
BBX 22 22 0 -4
BITMAP
000000
000000
000000
000000
010020
00FFF0
008020
008020
008020
008040
008040
000080
000080
000100
000200
000400
001800
002000
000000
000000
000000
000000
ENDCHAR

STARTCHAR Ca5f5
ENCODING 42485
SWIDTH 1000 0
DWIDTH 22 0
BBX 22 22 0 -4
BITMAP
000000
000000
000000
000C00
000400
000400
000420
020FF0
01F820
000820
000820
001020
001040
002040
002440
004280
008180
030100
000000
000000
000000
000000
ENDCHAR

STARTCHAR Ca5f6
ENCODING 42486
SWIDTH 1000 0
DWIDTH 22 0
BBX 22 22 0 -4
BITMAP
000000
000000
000000
006000
002000
002000
004020
007FF0
008200
008200
010200
020200
000200
000400
000400
000800
001000
006000
000000
000000
000000
000000
ENDCHAR
ENDFONT
